# xmcd
#
# Track frame offsets:
#	150
#	15626
#	28515
#	41314
#	60404
#	75289
#	85702
#	105954
#	124967
#	137339
#	151515
#	168806
#	184073
#	202919
#	218412
#
# Disc length: 3086 seconds
#
# Revision: 1
# Processed by: cddbd v1.5.2PL0 Copyright (c) Steve Scherf et al.
# Submitted via: audiograbber 1.83.01
#
DISCID=9a0c0c0f
DTITLE=Schnuffel - Ich hab Dich lieb
DYEAR=2008
DGENRE=Kinderlieder
TTITLE0=Ich hab' dich lieb 
TTITLE1=Kuschel Song (Single Version)
TTITLE2=Hab' dich gern 
TTITLE3=Wir gehören zusammen 
TTITLE4=Du bist mein allerliebster Freund 
TTITLE5=Schnucki Putzi 
TTITLE6=Ich will zu dir 
TTITLE7=Wo bist du hingegangen 
TTITLE8=Häschenparty
TTITLE9=Alles Gute 
TTITLE10=Bleib heute Nacht bei mir 
TTITLE11=Schlaf schön mein Schatz 
TTITLE12=Bitte komm doch wieder 
TTITLE13=Tausend Küsschen 
TTITLE14=Komm mich knuddeln 
EXTD=Album ohne Videoclip Single Version "Kuschel Song"\n
EXTT0=
EXTT1=
EXTT2=
EXTT3=
EXTT4=
EXTT5=
EXTT6=
EXTT7=
EXTT8=
EXTT9=
EXTT10=
EXTT11=
EXTT12=
EXTT13=
EXTT14=
PLAYORDER=
